<?xml version="1.0" standalone="no"?>
<!DOCTYPE svg PUBLIC "-//W3C//DTD SVG 20010904//EN"
 "http://www.w3.org/TR/2001/REC-SVG-20010904/DTD/svg10.dtd">
<svg version="1.0" xmlns="http://www.w3.org/2000/svg"
 width="1024.000000pt" height="1024.000000pt" viewBox="0 0 1024.000000 1024.000000"
 preserveAspectRatio="xMidYMid meet">
<metadata>
Created by potrace 1.14, written by Peter Selinger 2001-2017
</metadata>
<g transform="translate(0.000000,1024.000000) scale(0.100000,-0.100000)"
fill="#000000" stroke="none">
<path d="M7415 7443 c-867 -22 -1571 -363 -1969 -953 -69 -102 -174 -312 -215
-431 -39 -111 -77 -262 -97 -385 -25 -152 -30 -536 -10 -702 66 -534 258 -969
578 -1306 262 -277 600 -476 993 -585 431 -119 1060 -121 1519 -5 197 50 444
137 576 204 33 17 64 30 70 30 6 0 10 -46 10 -125 l0 -125 263 2 262 3 3 958
2 957 -610 0 -610 0 0 -125 0 -125 345 0 345 0 0 -554 0 -555 -85 -51 c-353
-213 -686 -300 -1145 -300 -230 1 -346 11 -512 44 -668 136 -1138 565 -1323
1208 -126 438 -128 971 -4 1418 183 666 661 1099 1329 1206 134 21 430 29 577
15 349 -32 686 -141 928 -300 140 -92 276 -245 316 -353 l13 -38 219 0 c254 0
238 -11 166 115 -139 243 -351 442 -629 589 -218 115 -537 214 -799 246 -110
14 -377 26 -506 23z"/>
<path d="M2396 7168 c-47 -112 -457 -1080 -910 -2153 l-825 -1950 132 -3 c72
-1 136 -1 142 2 6 2 132 288 280 635 l269 631 1064 -2 1063 -3 294 -630 293
-630 296 -3 c163 -1 296 1 296 6 0 4 -450 973 -999 2152 l-999 2145 -155 3
-155 2 -86 -202z m600 -1521 l480 -1032 -930 -3 c-511 -1 -931 0 -934 2 -2 3
184 445 413 983 505 1183 461 1083 477 1083 7 0 219 -443 494 -1033z"/>
</g>
</svg>
